<svg xmlns="http://www.w3.org/2000/svg" xmlns:xlink="http://www.w3.org/1999/xlink" width="250" zoomAndPan="magnify" viewBox="0 0 187.5 60" height="80" preserveAspectRatio="xMidYMid meet" version="1.0"><defs><g/><clipPath id="f248578abd"><rect x="0" width="132" y="0" height="35"/></clipPath><clipPath id="fc6d5b31be"><rect x="0" width="104" y="0" height="14"/></clipPath><clipPath id="e82a0d1102"><path d="M 0 1.402344 L 56.972656 1.402344 L 56.972656 58.375 L 0 58.375 Z M 0 1.402344 " clip-rule="nonzero"/></clipPath><clipPath id="3f6db2e5c4"><path d="M 28.484375 1.402344 C 12.753906 1.402344 0 14.15625 0 29.886719 C 0 45.621094 12.753906 58.375 28.484375 58.375 C 44.21875 58.375 56.972656 45.621094 56.972656 29.886719 C 56.972656 14.15625 44.21875 1.402344 28.484375 1.402344 Z M 28.484375 1.402344 " clip-rule="nonzero"/></clipPath><clipPath id="c94cf65019"><path d="M 0 0.402344 L 56.972656 0.402344 L 56.972656 57.375 L 0 57.375 Z M 0 0.402344 " clip-rule="nonzero"/></clipPath><clipPath id="0f470955df"><path d="M 28.484375 0.402344 C 12.753906 0.402344 0 13.15625 0 28.886719 C 0 44.621094 12.753906 57.375 28.484375 57.375 C 44.21875 57.375 56.972656 44.621094 56.972656 28.886719 C 56.972656 13.15625 44.21875 0.402344 28.484375 0.402344 Z M 28.484375 0.402344 " clip-rule="nonzero"/></clipPath><clipPath id="8c34f9c5d4"><rect x="0" width="57" y="0" height="58"/></clipPath><clipPath id="5213c123c4"><path d="M 0 1.402344 L 56.847656 1.402344 L 56.847656 58.25 L 0 58.25 Z M 0 1.402344 " clip-rule="nonzero"/></clipPath><clipPath id="a9d9e8aa76"><path d="M 28.484375 1.402344 C 12.753906 1.402344 0 14.152344 0 29.882812 C 0 45.613281 12.753906 58.367188 28.484375 58.367188 C 44.214844 58.367188 56.964844 45.613281 56.964844 29.882812 C 56.964844 14.152344 44.214844 1.402344 28.484375 1.402344 Z M 28.484375 1.402344 " clip-rule="nonzero"/></clipPath><clipPath id="97b20fdde3"><path d="M 35.628906 17.910156 L 43.6875 17.910156 L 43.6875 49.707031 L 35.628906 49.707031 Z M 35.628906 17.910156 " clip-rule="nonzero"/></clipPath><clipPath id="a9cf720a54"><path d="M 43.65625 18.917969 L 43.65625 48.722656 C 43.65625 48.980469 43.554688 49.226562 43.371094 49.410156 C 43.1875 49.59375 42.941406 49.695312 42.679688 49.695312 L 36.601562 49.695312 C 36.34375 49.695312 36.097656 49.59375 35.914062 49.410156 C 35.730469 49.226562 35.628906 48.980469 35.628906 48.722656 L 35.628906 18.917969 C 35.628906 18.65625 35.730469 18.410156 35.914062 18.226562 C 36.097656 18.042969 36.34375 17.941406 36.601562 17.941406 L 42.679688 17.941406 C 42.941406 17.941406 43.1875 18.042969 43.371094 18.226562 C 43.554688 18.410156 43.65625 18.65625 43.65625 18.917969 Z M 43.65625 18.917969 " clip-rule="nonzero"/></clipPath><clipPath id="f6e23426be"><path d="M 0.628906 0.910156 L 8.6875 0.910156 L 8.6875 32.707031 L 0.628906 32.707031 Z M 0.628906 0.910156 " clip-rule="nonzero"/></clipPath><clipPath id="439c7f543e"><path d="M 8.65625 1.917969 L 8.65625 31.722656 C 8.65625 31.980469 8.554688 32.226562 8.371094 32.410156 C 8.1875 32.59375 7.941406 32.695312 7.679688 32.695312 L 1.601562 32.695312 C 1.34375 32.695312 1.097656 32.59375 0.914062 32.410156 C 0.730469 32.226562 0.628906 31.980469 0.628906 31.722656 L 0.628906 1.917969 C 0.628906 1.65625 0.730469 1.410156 0.914062 1.226562 C 1.097656 1.042969 1.34375 0.941406 1.601562 0.941406 L 7.679688 0.941406 C 7.941406 0.941406 8.1875 1.042969 8.371094 1.226562 C 8.554688 1.410156 8.65625 1.65625 8.65625 1.917969 Z M 8.65625 1.917969 " clip-rule="nonzero"/></clipPath><clipPath id="0694709e9e"><rect x="0" width="9" y="0" height="33"/></clipPath><clipPath id="e5957a033f"><path d="M 7.503906 9.71875 L 35 9.71875 L 35 49.363281 L 7.503906 49.363281 Z M 7.503906 9.71875 " clip-rule="nonzero"/></clipPath><clipPath id="7da134fc3c"><path d="M 27.140625 7.882812 L 31.289062 7.882812 L 31.289062 23.507812 L 27.140625 23.507812 Z M 27.140625 7.882812 " clip-rule="nonzero"/></clipPath><clipPath id="f490c15f45"><path d="M 0.140625 0.882812 L 4.289062 0.882812 L 4.289062 16.507812 L 0.140625 16.507812 Z M 0.140625 0.882812 " clip-rule="nonzero"/></clipPath><clipPath id="03886fd61b"><rect x="0" width="5" y="0" height="17"/></clipPath><clipPath id="1f9b9443d8"><path d="M 28.375 9.71875 L 43.683594 9.71875 L 43.683594 17.300781 L 28.375 17.300781 Z M 28.375 9.71875 " clip-rule="nonzero"/></clipPath><clipPath id="423cfb8e85"><path d="M 29.347656 9.71875 L 42.691406 9.71875 C 42.949219 9.71875 43.199219 9.820312 43.378906 10.003906 C 43.5625 10.1875 43.664062 10.433594 43.664062 10.691406 L 43.664062 16.324219 C 43.664062 16.582031 43.5625 16.832031 43.378906 17.011719 C 43.199219 17.195312 42.949219 17.300781 42.691406 17.300781 L 29.347656 17.300781 C 29.089844 17.300781 28.84375 17.195312 28.660156 17.011719 C 28.476562 16.832031 28.375 16.582031 28.375 16.324219 L 28.375 10.691406 C 28.375 10.433594 28.476562 10.1875 28.660156 10.003906 C 28.84375 9.820312 29.089844 9.71875 29.347656 9.71875 Z M 29.347656 9.71875 " clip-rule="nonzero"/></clipPath><clipPath id="3caf271717"><path d="M 0.375 0.71875 L 15.683594 0.71875 L 15.683594 8.300781 L 0.375 8.300781 Z M 0.375 0.71875 " clip-rule="nonzero"/></clipPath><clipPath id="85212b031b"><path d="M 1.347656 0.71875 L 14.691406 0.71875 C 14.949219 0.71875 15.199219 0.820312 15.378906 1.003906 C 15.5625 1.1875 15.664062 1.433594 15.664062 1.691406 L 15.664062 7.324219 C 15.664062 7.582031 15.5625 7.832031 15.378906 8.011719 C 15.199219 8.195312 14.949219 8.300781 14.691406 8.300781 L 1.347656 8.300781 C 1.089844 8.300781 0.84375 8.195312 0.660156 8.011719 C 0.476562 7.832031 0.375 7.582031 0.375 7.324219 L 0.375 1.691406 C 0.375 1.433594 0.476562 1.1875 0.660156 1.003906 C 0.84375 0.820312 1.089844 0.71875 1.347656 0.71875 Z M 1.347656 0.71875 " clip-rule="nonzero"/></clipPath><clipPath id="15e3a743ec"><rect x="0" width="16" y="0" height="9"/></clipPath><clipPath id="ec0027feec"><path d="M 27.832031 9.71875 L 39.222656 9.71875 L 39.222656 17.300781 L 27.832031 17.300781 Z M 27.832031 9.71875 " clip-rule="nonzero"/></clipPath><clipPath id="0f9b5b72af"><path d="M 0.832031 0.71875 L 12.222656 0.71875 L 12.222656 8.300781 L 0.832031 8.300781 Z M 0.832031 0.71875 " clip-rule="nonzero"/></clipPath><clipPath id="bf88f786b0"><rect x="0" width="13" y="0" height="9"/></clipPath><clipPath id="7994635d1f"><path d="M 35.632812 17.945312 L 41.410156 17.945312 L 41.410156 49.699219 L 35.632812 49.699219 Z M 35.632812 17.945312 " clip-rule="nonzero"/></clipPath><clipPath id="8b3573d017"><path d="M 0.632812 0.945312 L 6.410156 0.945312 L 6.410156 32.699219 L 0.632812 32.699219 Z M 0.632812 0.945312 " clip-rule="nonzero"/></clipPath><clipPath id="439596cf73"><rect x="0" width="7" y="0" height="33"/></clipPath><clipPath id="04f208293b"><path d="M 28.375 11.90625 L 43.664062 11.90625 L 43.664062 17.300781 L 28.375 17.300781 Z M 28.375 11.90625 " clip-rule="nonzero"/></clipPath><clipPath id="a20dd1ffbc"><path d="M 0.375 0.90625 L 15.664062 0.90625 L 15.664062 6.300781 L 0.375 6.300781 Z M 0.375 0.90625 " clip-rule="nonzero"/></clipPath><clipPath id="d527504c92"><rect x="0" width="16" y="0" height="7"/></clipPath><clipPath id="11c86f8bae"><path d="M 37.878906 17.945312 L 43.660156 17.945312 L 43.660156 45.070312 L 37.878906 45.070312 Z M 37.878906 17.945312 " clip-rule="nonzero"/></clipPath><clipPath id="a9316d46bc"><path d="M 0.878906 0.945312 L 6.660156 0.945312 L 6.660156 28.070312 L 0.878906 28.070312 Z M 0.878906 0.945312 " clip-rule="nonzero"/></clipPath><clipPath id="d5e84b630a"><rect x="0" width="7" y="0" height="29"/></clipPath></defs><g transform="matrix(1, 0, 0, 1, 55, 9)"><g clip-path="url(#f248578abd)"><g fill="#ffffff" fill-opacity="1"><g transform="translate(2.215128, 26.236305)"><g><path d="M 10.46875 0.234375 C 9.164062 0.234375 7.957031 0.0195312 6.84375 -0.40625 C 5.738281 -0.832031 4.773438 -1.445312 3.953125 -2.25 C 3.128906 -3.0625 2.484375 -4.039062 2.015625 -5.1875 C 1.554688 -6.332031 1.328125 -7.625 1.328125 -9.0625 C 1.328125 -10.488281 1.554688 -11.773438 2.015625 -12.921875 C 2.484375 -14.066406 3.128906 -15.039062 3.953125 -15.84375 C 4.773438 -16.65625 5.738281 -17.273438 6.84375 -17.703125 C 7.957031 -18.128906 9.164062 -18.34375 10.46875 -18.34375 C 11.738281 -18.34375 12.914062 -18.132812 14 -17.71875 C 15.082031 -17.3125 16.03125 -16.722656 16.84375 -15.953125 C 17.664062 -15.191406 18.300781 -14.269531 18.75 -13.1875 L 15.921875 -12.109375 C 15.609375 -12.828125 15.179688 -13.441406 14.640625 -13.953125 C 14.097656 -14.460938 13.472656 -14.847656 12.765625 -15.109375 C 12.054688 -15.378906 11.289062 -15.515625 10.46875 -15.515625 C 9.613281 -15.515625 8.816406 -15.367188 8.078125 -15.078125 C 7.335938 -14.796875 6.6875 -14.375 6.125 -13.8125 C 5.570312 -13.257812 5.140625 -12.582031 4.828125 -11.78125 C 4.515625 -10.976562 4.359375 -10.070312 4.359375 -9.0625 C 4.359375 -8.039062 4.515625 -7.125 4.828125 -6.3125 C 5.140625 -5.507812 5.570312 -4.832031 6.125 -4.28125 C 6.6875 -3.726562 7.335938 -3.304688 8.078125 -3.015625 C 8.816406 -2.734375 9.613281 -2.59375 10.46875 -2.59375 C 11.289062 -2.59375 12.054688 -2.722656 12.765625 -2.984375 C 13.472656 -3.253906 14.097656 -3.640625 14.640625 -4.140625 C 15.179688 -4.648438 15.609375 -5.265625 15.921875 -5.984375 L 18.75 -4.90625 C 18.300781 -3.832031 17.664062 -2.910156 16.84375 -2.140625 C 16.03125 -1.367188 15.082031 -0.78125 14 -0.375 C 12.914062 0.03125 11.738281 0.234375 10.46875 0.234375 Z M 10.46875 0.234375 "/></g></g></g><g fill="#ffffff" fill-opacity="1"><g transform="translate(21.85821, 26.236305)"><g><path d="M 12.6875 -15.390625 L 5.65625 -15.390625 L 5.65625 -10.375 L 11.875 -10.375 L 11.875 -7.703125 L 5.65625 -7.703125 L 5.65625 -2.71875 L 12.6875 -2.71875 L 12.6875 0 L 2.59375 0 L 2.59375 -18.09375 L 12.6875 -18.09375 Z M 12.6875 -15.390625 "/></g></g></g><g fill="#ffffff" fill-opacity="1"><g transform="translate(36.077266, 26.236305)"><g><path d="M 5.625 -2.71875 L 11.59375 -2.71875 L 11.59375 0 L 2.59375 0 L 2.59375 -18.09375 L 5.625 -18.09375 Z M 5.625 -2.71875 "/></g></g></g><g fill="#ffffff" fill-opacity="1"><g transform="translate(48.293996, 26.236305)"><g><path d="M 12.6875 -15.390625 L 5.65625 -15.390625 L 5.65625 -10.375 L 11.875 -10.375 L 11.875 -7.703125 L 5.65625 -7.703125 L 5.65625 -2.71875 L 12.6875 -2.71875 L 12.6875 0 L 2.59375 0 L 2.59375 -18.09375 L 12.6875 -18.09375 Z M 12.6875 -15.390625 "/></g></g></g><g fill="#ffffff" fill-opacity="1"><g transform="translate(62.513053, 26.236305)"><g><path d="M 8.40625 0.234375 C 7.132812 0.234375 5.984375 0.0390625 4.953125 -0.34375 C 3.921875 -0.738281 3.070312 -1.3125 2.40625 -2.0625 C 1.738281 -2.8125 1.304688 -3.71875 1.109375 -4.78125 L 4.125 -5.484375 C 4.394531 -4.421875 4.914062 -3.617188 5.6875 -3.078125 C 6.457031 -2.546875 7.382812 -2.28125 8.46875 -2.28125 C 9.070312 -2.28125 9.628906 -2.367188 10.140625 -2.546875 C 10.660156 -2.722656 11.078125 -3.003906 11.390625 -3.390625 C 11.703125 -3.773438 11.851562 -4.273438 11.84375 -4.890625 C 11.84375 -5.398438 11.710938 -5.828125 11.453125 -6.171875 C 11.203125 -6.515625 10.859375 -6.800781 10.421875 -7.03125 C 9.992188 -7.269531 9.503906 -7.472656 8.953125 -7.640625 C 8.410156 -7.816406 7.84375 -7.988281 7.25 -8.15625 C 6.707031 -8.320312 6.164062 -8.492188 5.625 -8.671875 C 5.09375 -8.847656 4.585938 -9.0625 4.109375 -9.3125 C 3.640625 -9.5625 3.222656 -9.863281 2.859375 -10.21875 C 2.503906 -10.570312 2.222656 -10.992188 2.015625 -11.484375 C 1.804688 -11.972656 1.703125 -12.550781 1.703125 -13.21875 C 1.703125 -14.0625 1.863281 -14.800781 2.1875 -15.4375 C 2.507812 -16.070312 2.953125 -16.601562 3.515625 -17.03125 C 4.078125 -17.46875 4.734375 -17.796875 5.484375 -18.015625 C 6.234375 -18.234375 7.039062 -18.34375 7.90625 -18.34375 C 8.695312 -18.34375 9.460938 -18.253906 10.203125 -18.078125 C 10.953125 -17.910156 11.640625 -17.640625 12.265625 -17.265625 C 12.890625 -16.898438 13.421875 -16.425781 13.859375 -15.84375 C 14.296875 -15.269531 14.601562 -14.578125 14.78125 -13.765625 L 12 -13.0625 C 11.71875 -14.007812 11.226562 -14.703125 10.53125 -15.140625 C 9.832031 -15.585938 9.007812 -15.8125 8.0625 -15.8125 C 7.5 -15.8125 6.960938 -15.722656 6.453125 -15.546875 C 5.953125 -15.367188 5.546875 -15.097656 5.234375 -14.734375 C 4.921875 -14.378906 4.765625 -13.910156 4.765625 -13.328125 C 4.765625 -12.878906 4.875 -12.503906 5.09375 -12.203125 C 5.320312 -11.898438 5.625 -11.644531 6 -11.4375 C 6.382812 -11.238281 6.820312 -11.0625 7.3125 -10.90625 C 7.8125 -10.75 8.332031 -10.59375 8.875 -10.4375 C 9.445312 -10.28125 10.019531 -10.109375 10.59375 -9.921875 C 11.175781 -9.734375 11.726562 -9.507812 12.25 -9.25 C 12.78125 -8.988281 13.25 -8.671875 13.65625 -8.296875 C 14.070312 -7.921875 14.394531 -7.460938 14.625 -6.921875 C 14.863281 -6.390625 14.984375 -5.757812 14.984375 -5.03125 C 14.984375 -4.164062 14.816406 -3.40625 14.484375 -2.75 C 14.160156 -2.09375 13.695312 -1.539062 13.09375 -1.09375 C 12.5 -0.65625 11.800781 -0.320312 11 -0.09375 C 10.207031 0.125 9.34375 0.234375 8.40625 0.234375 Z M 8.40625 0.234375 "/></g></g></g><g fill="#ffffff" fill-opacity="1"><g transform="translate(78.658275, 26.236305)"><g><path d="M 12.578125 -18.09375 L 12.578125 -15.390625 L 8.109375 -15.390625 L 8.109375 0 L 5.09375 0 L 5.09375 -15.390625 L 0.609375 -15.390625 L 0.609375 -18.09375 Z M 12.578125 -18.09375 "/></g></g></g><g fill="#ffffff" fill-opacity="1"><g transform="translate(91.825489, 26.236305)"><g><path d="M 2.59375 0 L 2.59375 -18.09375 L 5.625 -18.09375 L 5.625 0 Z M 2.59375 0 "/></g></g></g><g fill="#ffffff" fill-opacity="1"><g transform="translate(100.024904, 26.236305)"><g><path d="M 14.46875 0 L 13.03125 -4.015625 L 5.125 -4.015625 L 3.703125 0 L 0.578125 0 L 7.234375 -18.09375 L 10.921875 -18.09375 L 17.578125 0 Z M 6.046875 -6.625 L 12.109375 -6.625 L 9.078125 -15.171875 Z M 6.046875 -6.625 "/></g></g></g><g fill="#ffffff" fill-opacity="1"><g transform="translate(118.172577, 26.236305)"><g><path d="M 5.625 -2.71875 L 11.59375 -2.71875 L 11.59375 0 L 2.59375 0 L 2.59375 -18.09375 L 5.625 -18.09375 Z M 5.625 -2.71875 "/></g></g></g></g></g><g transform="matrix(1, 0, 0, 1, 72, 38)"><g clip-path="url(#fc6d5b31be)"><g fill="#ffffff" fill-opacity="1"><g transform="translate(0.961584, 10.222553)"><g><path d="M 4.6875 -6.734375 L 4.6875 -5.734375 L 3.015625 -5.734375 L 3.015625 0 L 1.890625 0 L 1.890625 -5.734375 L 0.234375 -5.734375 L 0.234375 -6.734375 Z M 4.6875 -6.734375 "/></g></g></g><g fill="#ffffff" fill-opacity="1"><g transform="translate(7.040292, 10.222553)"><g><path d="M 4.5625 0 L 3.078125 -2.515625 L 2.09375 -2.515625 L 2.09375 0 L 0.96875 0 L 0.96875 -6.734375 L 3.109375 -6.734375 C 3.503906 -6.734375 3.835938 -6.703125 4.109375 -6.640625 C 4.378906 -6.585938 4.609375 -6.503906 4.796875 -6.390625 C 5.078125 -6.222656 5.28125 -6 5.40625 -5.71875 C 5.539062 -5.445312 5.609375 -5.117188 5.609375 -4.734375 C 5.609375 -4.347656 5.546875 -4 5.421875 -3.6875 C 5.296875 -3.382812 5.097656 -3.140625 4.828125 -2.953125 C 4.734375 -2.890625 4.632812 -2.828125 4.53125 -2.765625 C 4.425781 -2.710938 4.304688 -2.671875 4.171875 -2.640625 L 5.890625 0 Z M 2.09375 -5.78125 L 2.09375 -3.46875 L 2.953125 -3.46875 C 3.234375 -3.46875 3.472656 -3.488281 3.671875 -3.53125 C 3.867188 -3.582031 4.03125 -3.664062 4.15625 -3.78125 C 4.257812 -3.875 4.335938 -3.988281 4.390625 -4.125 C 4.441406 -4.269531 4.46875 -4.453125 4.46875 -4.671875 C 4.46875 -4.878906 4.4375 -5.050781 4.375 -5.1875 C 4.320312 -5.332031 4.242188 -5.445312 4.140625 -5.53125 C 4.003906 -5.632812 3.835938 -5.703125 3.640625 -5.734375 C 3.453125 -5.765625 3.222656 -5.78125 2.953125 -5.78125 Z M 2.09375 -5.78125 "/></g></g></g><g fill="#ffffff" fill-opacity="1"><g transform="translate(14.536061, 10.222553)"><g><path d="M 5.390625 0 L 4.84375 -1.5 L 1.90625 -1.5 L 1.375 0 L 0.21875 0 L 2.6875 -6.734375 L 4.0625 -6.734375 L 6.546875 0 Z M 2.25 -2.46875 L 4.515625 -2.46875 L 3.375 -5.640625 Z M 2.25 -2.46875 "/></g></g></g><g fill="#ffffff" fill-opacity="1"><g transform="translate(22.471105, 10.222553)"><g><path d="M 0.96875 0 L 0.96875 -6.734375 L 3.265625 -6.734375 C 3.796875 -6.734375 4.253906 -6.648438 4.640625 -6.484375 C 5.035156 -6.328125 5.363281 -6.097656 5.625 -5.796875 C 5.894531 -5.492188 6.097656 -5.140625 6.234375 -4.734375 C 6.367188 -4.328125 6.4375 -3.875 6.4375 -3.375 C 6.4375 -2.875 6.367188 -2.414062 6.234375 -2 C 6.097656 -1.59375 5.894531 -1.238281 5.625 -0.9375 C 5.363281 -0.632812 5.035156 -0.398438 4.640625 -0.234375 C 4.253906 -0.078125 3.796875 0 3.265625 0 Z M 2.09375 -1.015625 L 3.21875 -1.015625 C 3.675781 -1.015625 4.054688 -1.109375 4.359375 -1.296875 C 4.660156 -1.484375 4.882812 -1.753906 5.03125 -2.109375 C 5.175781 -2.460938 5.25 -2.882812 5.25 -3.375 C 5.25 -3.863281 5.175781 -4.28125 5.03125 -4.625 C 4.882812 -4.976562 4.660156 -5.25 4.359375 -5.4375 C 4.054688 -5.632812 3.675781 -5.734375 3.21875 -5.734375 L 2.09375 -5.734375 Z M 2.09375 -1.015625 "/></g></g></g><g fill="#ffffff" fill-opacity="1"><g transform="translate(30.599812, 10.222553)"><g><path d="M 4.71875 -5.734375 L 2.109375 -5.734375 L 2.109375 -3.859375 L 4.421875 -3.859375 L 4.421875 -2.859375 L 2.109375 -2.859375 L 2.109375 -1.015625 L 4.71875 -1.015625 L 4.71875 0 L 0.96875 0 L 0.96875 -6.734375 L 4.71875 -6.734375 Z M 4.71875 -5.734375 "/></g></g></g><g fill="#ffffff" fill-opacity="1"><g transform="translate(37.07057, 10.222553)"><g><path d="M 4.5625 0 L 3.078125 -2.515625 L 2.09375 -2.515625 L 2.09375 0 L 0.96875 0 L 0.96875 -6.734375 L 3.109375 -6.734375 C 3.503906 -6.734375 3.835938 -6.703125 4.109375 -6.640625 C 4.378906 -6.585938 4.609375 -6.503906 4.796875 -6.390625 C 5.078125 -6.222656 5.28125 -6 5.40625 -5.71875 C 5.539062 -5.445312 5.609375 -5.117188 5.609375 -4.734375 C 5.609375 -4.347656 5.546875 -4 5.421875 -3.6875 C 5.296875 -3.382812 5.097656 -3.140625 4.828125 -2.953125 C 4.734375 -2.890625 4.632812 -2.828125 4.53125 -2.765625 C 4.425781 -2.710938 4.304688 -2.671875 4.171875 -2.640625 L 5.890625 0 Z M 2.09375 -5.78125 L 2.09375 -3.46875 L 2.953125 -3.46875 C 3.234375 -3.46875 3.472656 -3.488281 3.671875 -3.53125 C 3.867188 -3.582031 4.03125 -3.664062 4.15625 -3.78125 C 4.257812 -3.875 4.335938 -3.988281 4.390625 -4.125 C 4.441406 -4.269531 4.46875 -4.453125 4.46875 -4.671875 C 4.46875 -4.878906 4.4375 -5.050781 4.375 -5.1875 C 4.320312 -5.332031 4.242188 -5.445312 4.140625 -5.53125 C 4.003906 -5.632812 3.835938 -5.703125 3.640625 -5.734375 C 3.453125 -5.765625 3.222656 -5.78125 2.953125 -5.78125 Z M 2.09375 -5.78125 "/></g></g></g><g fill="#ffffff" fill-opacity="1"><g transform="translate(44.519093, 10.222553)"><g/></g></g><g fill="#ffffff" fill-opacity="1"><g transform="translate(48.202986, 10.222553)"><g><path d="M 5.390625 0 L 4.84375 -1.5 L 1.90625 -1.5 L 1.375 0 L 0.21875 0 L 2.6875 -6.734375 L 4.0625 -6.734375 L 6.546875 0 Z M 2.25 -2.46875 L 4.515625 -2.46875 L 3.375 -5.640625 Z M 2.25 -2.46875 "/></g></g></g><g fill="#ffffff" fill-opacity="1"><g transform="translate(56.13803, 10.222553)"><g><path d="M 2.09375 -1.015625 L 4.3125 -1.015625 L 4.3125 0 L 0.96875 0 L 0.96875 -6.734375 L 2.09375 -6.734375 Z M 2.09375 -1.015625 "/></g></g></g><g fill="#ffffff" fill-opacity="1"><g transform="translate(61.862475, 10.222553)"><g><path d="M 2.09375 -1.015625 L 4.3125 -1.015625 L 4.3125 0 L 0.96875 0 L 0.96875 -6.734375 L 2.09375 -6.734375 Z M 2.09375 -1.015625 "/></g></g></g><g fill="#ffffff" fill-opacity="1"><g transform="translate(67.58692, 10.222553)"><g><path d="M 0.96875 0 L 0.96875 -6.734375 L 2.09375 -6.734375 L 2.09375 0 Z M 0.96875 0 "/></g></g></g><g fill="#ffffff" fill-opacity="1"><g transform="translate(71.814015, 10.222553)"><g><path d="M 5.390625 0 L 4.84375 -1.5 L 1.90625 -1.5 L 1.375 0 L 0.21875 0 L 2.6875 -6.734375 L 4.0625 -6.734375 L 6.546875 0 Z M 2.25 -2.46875 L 4.515625 -2.46875 L 3.375 -5.640625 Z M 2.25 -2.46875 "/></g></g></g><g fill="#ffffff" fill-opacity="1"><g transform="translate(79.749059, 10.222553)"><g><path d="M 5.53125 -6.734375 L 6.65625 -6.734375 L 6.65625 0 L 5.390625 0 L 2.078125 -5.140625 L 2.078125 0 L 0.96875 0 L 0.96875 -6.734375 L 2.21875 -6.734375 L 5.53125 -1.625 Z M 5.53125 -6.734375 "/></g></g></g><g fill="#ffffff" fill-opacity="1"><g transform="translate(88.539056, 10.222553)"><g><path d="M 3.890625 0.09375 C 3.410156 0.09375 2.960938 0.015625 2.546875 -0.140625 C 2.140625 -0.304688 1.78125 -0.539062 1.46875 -0.84375 C 1.164062 -1.144531 0.925781 -1.503906 0.75 -1.921875 C 0.582031 -2.347656 0.5 -2.832031 0.5 -3.375 C 0.5 -3.90625 0.582031 -4.382812 0.75 -4.8125 C 0.925781 -5.238281 1.164062 -5.601562 1.46875 -5.90625 C 1.78125 -6.207031 2.140625 -6.4375 2.546875 -6.59375 C 2.960938 -6.75 3.410156 -6.828125 3.890625 -6.828125 C 4.367188 -6.828125 4.804688 -6.75 5.203125 -6.59375 C 5.609375 -6.445312 5.960938 -6.226562 6.265625 -5.9375 C 6.578125 -5.65625 6.816406 -5.3125 6.984375 -4.90625 L 5.921875 -4.5 C 5.804688 -4.769531 5.644531 -5 5.4375 -5.1875 C 5.238281 -5.382812 5.007812 -5.53125 4.75 -5.625 C 4.488281 -5.726562 4.203125 -5.78125 3.890625 -5.78125 C 3.578125 -5.78125 3.28125 -5.722656 3 -5.609375 C 2.726562 -5.503906 2.488281 -5.347656 2.28125 -5.140625 C 2.070312 -4.929688 1.910156 -4.675781 1.796875 -4.375 C 1.679688 -4.082031 1.625 -3.75 1.625 -3.375 C 1.625 -2.988281 1.679688 -2.644531 1.796875 -2.34375 C 1.910156 -2.050781 2.070312 -1.800781 2.28125 -1.59375 C 2.488281 -1.382812 2.726562 -1.226562 3 -1.125 C 3.28125 -1.019531 3.578125 -0.96875 3.890625 -0.96875 C 4.203125 -0.96875 4.488281 -1.015625 4.75 -1.109375 C 5.007812 -1.210938 5.238281 -1.359375 5.4375 -1.546875 C 5.644531 -1.734375 5.804688 -1.960938 5.921875 -2.234375 L 6.984375 -1.828125 C 6.816406 -1.429688 6.578125 -1.085938 6.265625 -0.796875 C 5.960938 -0.515625 5.609375 -0.296875 5.203125 -0.140625 C 4.804688 0.015625 4.367188 0.09375 3.890625 0.09375 Z M 3.890625 0.09375 "/></g></g></g><g fill="#ffffff" fill-opacity="1"><g transform="translate(97.031473, 10.222553)"><g><path d="M 4.71875 -5.734375 L 2.109375 -5.734375 L 2.109375 -3.859375 L 4.421875 -3.859375 L 4.421875 -2.859375 L 2.109375 -2.859375 L 2.109375 -1.015625 L 4.71875 -1.015625 L 4.71875 0 L 0.96875 0 L 0.96875 -6.734375 L 4.71875 -6.734375 Z M 4.71875 -5.734375 "/></g></g></g></g></g><g clip-path="url(#e82a0d1102)"><g clip-path="url(#3f6db2e5c4)"><g transform="matrix(1, 0, 0, 1, 0, 1)"><g clip-path="url(#8c34f9c5d4)"><g clip-path="url(#c94cf65019)"><g clip-path="url(#0f470955df)"><path fill="#042c62" d="M 0 0.402344 L 56.972656 0.402344 L 56.972656 57.375 L 0 57.375 Z M 0 0.402344 " fill-opacity="1" fill-rule="nonzero"/></g></g></g></g></g></g><g clip-path="url(#5213c123c4)"><g clip-path="url(#a9d9e8aa76)"><path stroke-linecap="butt" transform="matrix(0.748005, 0, 0, 0.748005, -0.00000000000001063, 1.40149)" fill="none" stroke-linejoin="miter" d="M 38.080446 0.00114151 C 17.050556 0.00114151 0.000000000000014211 17.046476 0.000000000000014211 38.076365 C 0.000000000000014211 59.106255 17.050556 76.156811 38.080446 76.156811 C 59.110336 76.156811 76.15567 59.106255 76.15567 38.076365 C 76.15567 17.046476 59.110336 0.00114151 38.080446 0.00114151 Z M 38.080446 0.00114151 " stroke="#e1a730" stroke-width="2" stroke-opacity="1" stroke-miterlimit="4"/></g></g><g clip-path="url(#97b20fdde3)"><g clip-path="url(#a9cf720a54)"><g transform="matrix(1, 0, 0, 1, 35, 17)"><g clip-path="url(#0694709e9e)"><g clip-path="url(#f6e23426be)"><g clip-path="url(#439c7f543e)"><path fill="#d4af37" d="M 8.65625 0.941406 L 8.65625 32.707031 L 0.628906 32.707031 L 0.628906 0.941406 Z M 8.65625 0.941406 " fill-opacity="1" fill-rule="nonzero"/></g></g></g></g></g></g><g clip-path="url(#e5957a033f)"><path fill="#d4af37" d="M 27.503906 49.667969 C 16.472656 49.667969 7.527344 40.722656 7.527344 29.6875 C 7.527344 18.65625 16.472656 9.710938 27.503906 9.710938 L 34.984375 9.710938 L 34.984375 17.222656 L 27.503906 17.25 C 20.636719 17.25 15.066406 22.820312 15.066406 29.6875 C 15.066406 36.558594 20.636719 42.128906 27.503906 42.128906 L 34.984375 42.128906 L 34.984375 49.632812 L 27.503906 49.667969 " fill-opacity="1" fill-rule="nonzero"/></g><g clip-path="url(#7da134fc3c)"><g transform="matrix(1, 0, 0, 1, 27, 7)"><g clip-path="url(#03886fd61b)"><g clip-path="url(#f490c15f45)"><path fill="#042c62" d="M 0.140625 16.507812 L 0.140625 0.875 L 4.289062 0.875 L 4.289062 16.507812 Z M 0.140625 16.507812 " fill-opacity="1" fill-rule="nonzero"/></g></g></g></g><g clip-path="url(#1f9b9443d8)"><g clip-path="url(#423cfb8e85)"><g transform="matrix(1, 0, 0, 1, 28, 9)"><g clip-path="url(#15e3a743ec)"><g clip-path="url(#3caf271717)"><g clip-path="url(#85212b031b)"><path fill="#d4af37" d="M 0.375 0.71875 L 15.65625 0.71875 L 15.65625 8.300781 L 0.375 8.300781 Z M 0.375 0.71875 " fill-opacity="1" fill-rule="nonzero"/></g></g></g></g></g></g><g clip-path="url(#ec0027feec)"><g transform="matrix(1, 0, 0, 1, 27, 9)"><g clip-path="url(#bf88f786b0)"><g clip-path="url(#0f9b5b72af)"><path fill="#d4af37" d="M 0.832031 0.71875 L 12.234375 0.71875 L 12.234375 8.300781 L 0.832031 8.300781 Z M 0.832031 0.71875 " fill-opacity="1" fill-rule="nonzero"/></g></g></g></g><g clip-path="url(#7994635d1f)"><g transform="matrix(1, 0, 0, 1, 35, 17)"><g clip-path="url(#439596cf73)"><g clip-path="url(#8b3573d017)"><path fill="#d4af37" d="M 6.410156 0.945312 L 6.410156 32.699219 L 0.632812 32.699219 L 0.632812 0.945312 Z M 6.410156 0.945312 " fill-opacity="1" fill-rule="nonzero"/></g></g></g></g><g clip-path="url(#04f208293b)"><g transform="matrix(1, 0, 0, 1, 28, 11)"><g clip-path="url(#d527504c92)"><g clip-path="url(#a20dd1ffbc)"><path fill="#d4af37" d="M 0.375 0.90625 L 15.667969 0.90625 L 15.667969 6.300781 L 0.375 6.300781 Z M 0.375 0.90625 " fill-opacity="1" fill-rule="nonzero"/></g></g></g></g><g clip-path="url(#11c86f8bae)"><g transform="matrix(1, 0, 0, 1, 37, 17)"><g clip-path="url(#d5e84b630a)"><g clip-path="url(#a9316d46bc)"><path fill="#d4af37" d="M 6.660156 0.945312 L 6.660156 28.074219 L 0.878906 28.074219 L 0.878906 0.945312 Z M 6.660156 0.945312 " fill-opacity="1" fill-rule="nonzero"/></g></g></g></g></svg>